<?xml version="1.0" encoding="UTF-8"?><svg xmlns="http://www.w3.org/2000/svg" xmlns:xlink="http://www.w3.org/1999/xlink" height="464.1" preserveAspectRatio="xMidYMid meet" version="1.0" viewBox="24.0 24.0 464.0 464.1" width="464.0" zoomAndPan="magnify"><g><g id="change1_1"><path d="M462.82,181.39,297.36,73.12a73,73,0,0,0-82.72,0L49.18,181.39a64.16,64.16,0,0,0-25.18,51V423.63A64.37,64.37,0,0,0,88.37,488H423.63A64.37,64.37,0,0,0,488,423.63V232.37A64.16,64.16,0,0,0,462.82,181.39Z" fill="#ffa000"/></g><g id="change2_1"><path d="M416,488V40a16,16,0,0,0-16-16H112A16,16,0,0,0,96,40V488Z" fill="#f3f5f9"/></g><g id="change3_1"><path d="M488,232.4V423.6A64.36,64.36,0,0,1,423.6,488H88.4A64.36,64.36,0,0,1,24,423.6V232.4a63.24,63.24,0,0,1,7-29L214.64,366.88a63.87,63.87,0,0,0,82.72,0L481,203.36A63.24,63.24,0,0,1,488,232.4Z" fill="#ffc107"/></g><g id="change4_1"><path d="M471.84,466.24A64.1,64.1,0,0,1,423.6,488H88.4a63.73,63.73,0,0,1-45.6-19L215,316.72a61.93,61.93,0,0,1,81.92,0Z" fill="#ffd54f"/></g><g id="change5_1"><rect fill="#fff" height="48" rx="8" transform="rotate(-90 128 456)" width="16" x="120" y="432"/></g><g id="change5_2"><circle cx="176" cy="456" fill="#fff" r="8"/></g><g id="change6_1"><path d="M256,56a104,104,0,0,0,0,208,8,8,0,0,0,0-16,88,88,0,1,1,88-88v24a16,16,0,0,1-32,0V160a56.17,56.17,0,1,0-13.51,36.37A32,32,0,0,0,360,184V160A104.13,104.13,0,0,0,256,56Zm0,144a40,40,0,1,1,40-40A40.05,40.05,0,0,1,256,200Z" fill="#c02027"/></g></g></svg>